<?xml version="1.0" encoding="UTF-8"?>
<!DOCTYPE svg PUBLIC "-//W3C//DTD SVG 1.1//EN"
    "http://www.w3.org/Graphics/SVG/1.1/DTD/svg11.dtd">
<svg xmlns="http://www.w3.org/2000/svg" xmlns:xlink="http://www.w3.org/1999/xlink" version="1.1" width="120.0" height="67.19999999999999" font-size="1" viewBox="0 0 120 67" stroke="rgb(0,0,0)" stroke-opacity="1"><g><g fill="rgb(0,0,0)" fill-opacity="0.0"><g stroke="rgb(0,0,0)" stroke-opacity="1.0" stroke-width="0.5" stroke-linecap="butt" stroke-linejoin="miter" font-size="1.0em" stroke-miterlimit="10.0"><g fill="rgb(0,0,0)" fill-opacity="1.0" stroke-width="0.0"><g fill="rgb(0,0,0)" fill-opacity="1.0"><g fill="rgb(0,0,0)" fill-opacity="1.0"><path d="M 105.6,9.599999999999984 l -4.263256414560602e-15,-9.600000000000001 h -38.400000000000006 l -4.263256414560602e-15,9.600000000000001 Z" /></g></g></g><g fill="rgb(0,0,0)" fill-opacity="1.0" stroke-width="0.0"><g fill="rgb(0,0,0)" fill-opacity="1.0"><g fill="rgb(0,0,0)" fill-opacity="1.0"><path d="M 105.60000000000001,9.599999999999984 l -5.878304635907295e-16,-9.6 c 7.952900397563425,-4.8697470079068805e-16 14.399999999999999,6.447099602436571 14.399999999999999 14.399999999999995c 9.739494015813761e-16,7.952900397563425 -6.4470996024365705,14.399999999999999 -14.399999999999995 14.399999999999999l -1.7634913907721883e-15,-9.6 c 2.650966799187808,0.0 4.799999999999999,-2.1490332008121915 4.799999999999998 -4.800000000000001c 0.0,-2.650966799187808 -2.1490332008121915,-4.799999999999999 -4.800000000000001 -4.799999999999994Z" /></g></g></g><g fill="rgb(0,0,0)" fill-opacity="1.0" stroke-width="0.0"><g fill="rgb(0,0,0)" fill-opacity="1.0"><g fill="rgb(0,0,0)" fill-opacity="1.0"><path d="M 105.6,28.799999999999986 l -6.394884621840901e-15,-9.600000000000001 h -57.599999999999994 l -6.394884621840901e-15,9.600000000000001 Z" /></g></g></g><g fill="rgb(0,0,0)" fill-opacity="1.0" stroke-width="0.0"><g fill="rgb(0,0,0)" fill-opacity="1.0"><g fill="rgb(0,0,0)" fill-opacity="1.0"><path d="M 48.0,28.799999999999994 l 5.878304635907295e-16,-9.6 c -7.952900397563425,-4.8697470079068805e-16 -14.399999999999999,6.447099602436571 -14.399999999999999 14.399999999999995c -9.739494015813761e-16,7.952900397563425 6.4470996024365705,14.399999999999999 14.399999999999995 14.399999999999999l 1.7634913907721883e-15,-9.6 c -2.650966799187808,0.0 -4.799999999999999,-2.1490332008121915 -4.799999999999998 -4.800000000000001c 0.0,-2.650966799187808 2.1490332008121915,-4.799999999999999 4.800000000000001 -4.799999999999994Z" /></g></g></g><g fill="rgb(0,0,0)" fill-opacity="1.0" stroke-width="0.0"><g fill="rgb(0,0,0)" fill-opacity="1.0"><g fill="rgb(0,0,0)" fill-opacity="1.0"><path d="M 86.39999999999999,47.999999999999986 l -4.263256414560602e-15,-9.600000000000001 h -38.400000000000006 l -4.263256414560602e-15,9.600000000000001 Z" /></g></g></g><g fill="rgb(0,0,0)" fill-opacity="1.0" stroke-width="0.0"><g fill="rgb(0,0,0)" fill-opacity="1.0"><g fill="rgb(0,0,0)" fill-opacity="1.0"><path d="M 86.4,47.999999999999986 l -5.878304635907295e-16,-9.6 c 7.952900397563425,-4.8697470079068805e-16 14.399999999999999,6.447099602436571 14.399999999999999 14.399999999999995c 9.739494015813761e-16,7.952900397563425 -6.4470996024365705,14.399999999999999 -14.399999999999995 14.399999999999999l -1.7634913907721883e-15,-9.6 c 2.650966799187808,0.0 4.799999999999999,-2.1490332008121915 4.799999999999998 -4.800000000000001c 0.0,-2.650966799187808 -2.1490332008121915,-4.799999999999999 -4.800000000000001 -4.799999999999994Z" /></g></g></g><g fill="rgb(0,0,0)" fill-opacity="1.0" stroke-width="0.0"><g fill="rgb(0,0,0)" fill-opacity="1.0"><g fill="rgb(0,0,0)" fill-opacity="1.0"><path d="M 87.35999999999999,67.19999999999999 l -9.698908343125366e-15,-9.600000000000001 h -87.35999999999999 l -9.698908343125366e-15,9.600000000000001 Z" /></g></g></g></g></g></g></svg>