<?xml version="1.0" encoding="UTF-8"?>
<!DOCTYPE svg PUBLIC "-//W3C//DTD SVG 1.1//EN"
    "http://www.w3.org/Graphics/SVG/1.1/DTD/svg11.dtd"><svg xmlns="http://www.w3.org/2000/svg" height="235.2000" stroke-opacity="1" viewBox="0 0 420 235" font-size="1" width="420.0000" xmlns:xlink="http://www.w3.org/1999/xlink" stroke="rgb(0,0,0)" version="1.1"><defs></defs><g stroke-linejoin="miter" stroke-opacity="1.0" fill-opacity="1.0" stroke="rgb(0,0,0)" stroke-width="0.0" fill="rgb(0,0,0)" stroke-linecap="butt" stroke-miterlimit="10.0"><path d="M 371.2800,33.6000 l -0.0000,-33.6000 h -139.4400 l -0.0000,33.6000 Z"/></g><g stroke-linejoin="miter" stroke-opacity="1.0" fill-opacity="1.0" stroke="rgb(0,0,0)" stroke-width="0.0" fill="rgb(0,0,0)" stroke-linecap="butt" stroke-miterlimit="10.0"><path d="M 403.2000,100.8000 h -33.6000 c -0.0000,-27.8352 22.5648,-50.4000 50.4000 -50.4000l 0.0000,33.6000 c -9.2784,0.0000 -16.8000,7.5216 -16.8000 16.8000Z"/></g><g stroke-linejoin="miter" stroke-opacity="1.0" fill-opacity="1.0" stroke="rgb(0,0,0)" stroke-width="0.0" fill="rgb(0,0,0)" stroke-linecap="butt" stroke-miterlimit="10.0"><path d="M 371.2800,100.8000 l -0.0000,-33.6000 h -206.6400 l -0.0000,33.6000 Z"/></g><g stroke-linejoin="miter" stroke-opacity="1.0" fill-opacity="1.0" stroke="rgb(0,0,0)" stroke-width="0.0" fill="rgb(0,0,0)" stroke-linecap="butt" stroke-miterlimit="10.0"><path d="M 134.4000,168.0000 h 33.6000 c 0.0000,-27.8352 -22.5648,-50.4000 -50.4000 -50.4000l -0.0000,33.6000 c 9.2784,0.0000 16.8000,7.5216 16.8000 16.8000Z"/></g><g stroke-linejoin="miter" stroke-opacity="1.0" fill-opacity="1.0" stroke="rgb(0,0,0)" stroke-width="0.0" fill="rgb(0,0,0)" stroke-linecap="butt" stroke-miterlimit="10.0"><path d="M 304.0800,168.0000 l -0.0000,-33.6000 h -139.4400 l -0.0000,33.6000 Z"/></g><g stroke-linejoin="miter" stroke-opacity="1.0" fill-opacity="1.0" stroke="rgb(0,0,0)" stroke-width="0.0" fill="rgb(0,0,0)" stroke-linecap="butt" stroke-miterlimit="10.0"><path d="M 336.0000,235.2000 h -33.6000 c -0.0000,-27.8352 22.5648,-50.4000 50.4000 -50.4000l 0.0000,33.6000 c -9.2784,0.0000 -16.8000,7.5216 -16.8000 16.8000Z"/></g><g stroke-linejoin="miter" stroke-opacity="1.0" fill-opacity="1.0" stroke="rgb(0,0,0)" stroke-width="0.0" fill="rgb(0,0,0)" stroke-linecap="butt" stroke-miterlimit="10.0"><path d="M 305.7600,235.2000 l -0.0000,-33.6000 h -305.7600 l -0.0000,33.6000 Z"/></g></svg>